<mxfile host="app.diagrams.net" modified="2021-06-04T15:53:56.917Z" agent="5.0 (Windows NT 10.0; Win64; x64) AppleWebKit/537.36 (KHTML, like Gecko) Chrome/88.0.4324.182 Safari/537.36" etag="KfJuz4_hfTAn_6tR3Wk-" version="14.7.5" type="github">
  <diagram id="aVXqUsW4-UlWTaxkk0IP" name="Page-1">
    <mxGraphModel dx="1241" dy="745" grid="1" gridSize="10" guides="1" tooltips="1" connect="1" arrows="1" fold="1" page="1" pageScale="1" pageWidth="3300" pageHeight="4681" math="0" shadow="0">
      <root>
        <mxCell id="0" />
        <mxCell id="1" parent="0" />
        <mxCell id="PGLwwLvlYjxcBt-9KEW7-5" value="" style="edgeStyle=orthogonalEdgeStyle;rounded=0;orthogonalLoop=1;jettySize=auto;html=1;" parent="1" source="PGLwwLvlYjxcBt-9KEW7-2" target="PGLwwLvlYjxcBt-9KEW7-3" edge="1">
          <mxGeometry relative="1" as="geometry" />
        </mxCell>
        <mxCell id="PGLwwLvlYjxcBt-9KEW7-2" value="DECLARE menu = [&quot;View All Available Cars&quot;, &quot;Search for aÂ  Car&quot;, &quot;Book a Car&quot;,&quot;Return&quot;]" style="rounded=1;whiteSpace=wrap;html=1;" parent="1" vertex="1">
          <mxGeometry x="932.5" y="340" width="255" height="60" as="geometry" />
        </mxCell>
        <mxCell id="aMzmvUaGHVlUUyD1u6ji-3" value="" style="edgeStyle=orthogonalEdgeStyle;rounded=0;orthogonalLoop=1;jettySize=auto;html=1;endArrow=classic;endFill=1;" parent="1" source="PGLwwLvlYjxcBt-9KEW7-3" target="aMzmvUaGHVlUUyD1u6ji-1" edge="1">
          <mxGeometry relative="1" as="geometry" />
        </mxCell>
        <mxCell id="PGLwwLvlYjxcBt-9KEW7-3" value="title = user_data[2] + &quot;, do you want to rent a car?&quot;" style="rounded=1;whiteSpace=wrap;html=1;" parent="1" vertex="1">
          <mxGeometry x="937.5" y="480" width="245" height="40" as="geometry" />
        </mxCell>
        <mxCell id="aMzmvUaGHVlUUyD1u6ji-6" style="edgeStyle=orthogonalEdgeStyle;rounded=0;orthogonalLoop=1;jettySize=auto;html=1;endArrow=classic;endFill=1;" parent="1" source="PGLwwLvlYjxcBt-9KEW7-6" edge="1">
          <mxGeometry relative="1" as="geometry">
            <mxPoint x="1058.5000000000002" y="542.7586206896551" as="targetPoint" />
            <Array as="points">
              <mxPoint x="1310" y="960" />
              <mxPoint x="1310" y="543" />
            </Array>
          </mxGeometry>
        </mxCell>
        <mxCell id="q8p7JVlAxIzu5GNyNLyk-2" value="" style="edgeStyle=orthogonalEdgeStyle;rounded=0;orthogonalLoop=1;jettySize=auto;html=1;" edge="1" parent="1" source="PGLwwLvlYjxcBt-9KEW7-6" target="q8p7JVlAxIzu5GNyNLyk-1">
          <mxGeometry relative="1" as="geometry" />
        </mxCell>
        <mxCell id="PGLwwLvlYjxcBt-9KEW7-6" value="choice == &#39;1&#39; or choice == &#39;2&#39; or choice == &#39;3&#39; or choice == &#39;4&#39;&amp;nbsp;" style="rhombus;whiteSpace=wrap;html=1;" parent="1" vertex="1">
          <mxGeometry x="848.5" y="910" width="420" height="100" as="geometry" />
        </mxCell>
        <mxCell id="PGLwwLvlYjxcBt-9KEW7-15" value="" style="edgeStyle=orthogonalEdgeStyle;rounded=0;orthogonalLoop=1;jettySize=auto;html=1;" parent="1" source="PGLwwLvlYjxcBt-9KEW7-10" target="PGLwwLvlYjxcBt-9KEW7-11" edge="1">
          <mxGeometry relative="1" as="geometry" />
        </mxCell>
        <mxCell id="PGLwwLvlYjxcBt-9KEW7-10" value="PRINT(&quot;Please Select: &quot;)" style="rounded=1;whiteSpace=wrap;html=1;" parent="1" vertex="1">
          <mxGeometry x="936" y="740" width="245" height="40" as="geometry" />
        </mxCell>
        <mxCell id="PGLwwLvlYjxcBt-9KEW7-16" value="" style="edgeStyle=orthogonalEdgeStyle;rounded=0;orthogonalLoop=1;jettySize=auto;html=1;" parent="1" source="PGLwwLvlYjxcBt-9KEW7-11" target="PGLwwLvlYjxcBt-9KEW7-6" edge="1">
          <mxGeometry relative="1" as="geometry" />
        </mxCell>
        <mxCell id="PGLwwLvlYjxcBt-9KEW7-11" value="READ choice" style="shape=parallelogram;perimeter=parallelogramPerimeter;whiteSpace=wrap;html=1;fixedSize=1;" parent="1" vertex="1">
          <mxGeometry x="937.5" y="820" width="242" height="50" as="geometry" />
        </mxCell>
        <mxCell id="PGLwwLvlYjxcBt-9KEW7-23" style="edgeStyle=orthogonalEdgeStyle;rounded=0;orthogonalLoop=1;jettySize=auto;html=1;exitX=1;exitY=0.5;exitDx=0;exitDy=0;entryX=0;entryY=0.5;entryDx=0;entryDy=0;" parent="1" source="PGLwwLvlYjxcBt-9KEW7-17" target="PGLwwLvlYjxcBt-9KEW7-18" edge="1">
          <mxGeometry relative="1" as="geometry" />
        </mxCell>
        <mxCell id="aMzmvUaGHVlUUyD1u6ji-14" value="" style="edgeStyle=orthogonalEdgeStyle;rounded=0;orthogonalLoop=1;jettySize=auto;html=1;endArrow=classic;endFill=1;" parent="1" source="PGLwwLvlYjxcBt-9KEW7-17" target="aMzmvUaGHVlUUyD1u6ji-7" edge="1">
          <mxGeometry relative="1" as="geometry" />
        </mxCell>
        <mxCell id="PGLwwLvlYjxcBt-9KEW7-17" value="choice == &#39;1&#39;" style="rhombus;whiteSpace=wrap;html=1;" parent="1" vertex="1">
          <mxGeometry x="620" y="1040" width="110" height="100" as="geometry" />
        </mxCell>
        <mxCell id="PGLwwLvlYjxcBt-9KEW7-24" style="edgeStyle=orthogonalEdgeStyle;rounded=0;orthogonalLoop=1;jettySize=auto;html=1;exitX=1;exitY=0.5;exitDx=0;exitDy=0;entryX=0;entryY=0.5;entryDx=0;entryDy=0;" parent="1" source="PGLwwLvlYjxcBt-9KEW7-18" target="PGLwwLvlYjxcBt-9KEW7-20" edge="1">
          <mxGeometry relative="1" as="geometry" />
        </mxCell>
        <mxCell id="aMzmvUaGHVlUUyD1u6ji-19" value="" style="edgeStyle=orthogonalEdgeStyle;rounded=0;orthogonalLoop=1;jettySize=auto;html=1;endArrow=classic;endFill=1;" parent="1" source="PGLwwLvlYjxcBt-9KEW7-18" target="aMzmvUaGHVlUUyD1u6ji-15" edge="1">
          <mxGeometry relative="1" as="geometry" />
        </mxCell>
        <mxCell id="PGLwwLvlYjxcBt-9KEW7-18" value="choice == &#39;2&#39;" style="rhombus;whiteSpace=wrap;html=1;" parent="1" vertex="1">
          <mxGeometry x="940" y="1040" width="110" height="100" as="geometry" />
        </mxCell>
        <mxCell id="PGLwwLvlYjxcBt-9KEW7-25" style="edgeStyle=orthogonalEdgeStyle;rounded=0;orthogonalLoop=1;jettySize=auto;html=1;exitX=1;exitY=0.5;exitDx=0;exitDy=0;entryX=0;entryY=0.5;entryDx=0;entryDy=0;" parent="1" source="PGLwwLvlYjxcBt-9KEW7-20" target="PGLwwLvlYjxcBt-9KEW7-21" edge="1">
          <mxGeometry relative="1" as="geometry" />
        </mxCell>
        <mxCell id="aMzmvUaGHVlUUyD1u6ji-23" value="" style="edgeStyle=orthogonalEdgeStyle;rounded=0;orthogonalLoop=1;jettySize=auto;html=1;endArrow=classic;endFill=1;" parent="1" source="PGLwwLvlYjxcBt-9KEW7-20" target="aMzmvUaGHVlUUyD1u6ji-22" edge="1">
          <mxGeometry relative="1" as="geometry" />
        </mxCell>
        <mxCell id="PGLwwLvlYjxcBt-9KEW7-20" value="choice == &#39;3&#39;" style="rhombus;whiteSpace=wrap;html=1;" parent="1" vertex="1">
          <mxGeometry x="1300" y="1040" width="110" height="100" as="geometry" />
        </mxCell>
        <mxCell id="aMzmvUaGHVlUUyD1u6ji-24" value="" style="edgeStyle=orthogonalEdgeStyle;rounded=0;orthogonalLoop=1;jettySize=auto;html=1;endArrow=classic;endFill=1;" parent="1" source="PGLwwLvlYjxcBt-9KEW7-21" target="Q01VI0QdXi_x2SWAzA1D-1" edge="1">
          <mxGeometry relative="1" as="geometry" />
        </mxCell>
        <mxCell id="PGLwwLvlYjxcBt-9KEW7-21" value="choice == &#39;4&#39;" style="rhombus;whiteSpace=wrap;html=1;" parent="1" vertex="1">
          <mxGeometry x="1640" y="1040" width="110" height="100" as="geometry" />
        </mxCell>
        <mxCell id="PGLwwLvlYjxcBt-9KEW7-48" value="False" style="text;html=1;align=center;verticalAlign=middle;resizable=0;points=[];autosize=1;strokeColor=none;" parent="1" vertex="1">
          <mxGeometry x="1260" y="940" width="40" height="20" as="geometry" />
        </mxCell>
        <mxCell id="PGLwwLvlYjxcBt-9KEW7-49" value="True" style="text;html=1;align=center;verticalAlign=middle;resizable=0;points=[];autosize=1;strokeColor=none;" parent="1" vertex="1">
          <mxGeometry x="820" y="940" width="40" height="20" as="geometry" />
        </mxCell>
        <mxCell id="PGLwwLvlYjxcBt-9KEW7-50" value="False" style="text;html=1;align=center;verticalAlign=middle;resizable=0;points=[];autosize=1;strokeColor=none;" parent="1" vertex="1">
          <mxGeometry x="740" y="1060" width="40" height="20" as="geometry" />
        </mxCell>
        <mxCell id="PGLwwLvlYjxcBt-9KEW7-51" value="False" style="text;html=1;align=center;verticalAlign=middle;resizable=0;points=[];autosize=1;strokeColor=none;" parent="1" vertex="1">
          <mxGeometry x="1050" y="1060" width="40" height="20" as="geometry" />
        </mxCell>
        <mxCell id="PGLwwLvlYjxcBt-9KEW7-52" value="False" style="text;html=1;align=center;verticalAlign=middle;resizable=0;points=[];autosize=1;strokeColor=none;" parent="1" vertex="1">
          <mxGeometry x="1410" y="1060" width="40" height="20" as="geometry" />
        </mxCell>
        <mxCell id="PGLwwLvlYjxcBt-9KEW7-54" value="True" style="text;html=1;align=center;verticalAlign=middle;resizable=0;points=[];autosize=1;strokeColor=none;" parent="1" vertex="1">
          <mxGeometry x="680" y="1140" width="40" height="20" as="geometry" />
        </mxCell>
        <mxCell id="PGLwwLvlYjxcBt-9KEW7-55" value="True" style="text;html=1;align=center;verticalAlign=middle;resizable=0;points=[];autosize=1;strokeColor=none;" parent="1" vertex="1">
          <mxGeometry x="1000" y="1140" width="40" height="20" as="geometry" />
        </mxCell>
        <mxCell id="PGLwwLvlYjxcBt-9KEW7-56" value="True" style="text;html=1;align=center;verticalAlign=middle;resizable=0;points=[];autosize=1;strokeColor=none;" parent="1" vertex="1">
          <mxGeometry x="1360" y="1140" width="40" height="20" as="geometry" />
        </mxCell>
        <mxCell id="PGLwwLvlYjxcBt-9KEW7-57" value="True" style="text;html=1;align=center;verticalAlign=middle;resizable=0;points=[];autosize=1;strokeColor=none;" parent="1" vertex="1">
          <mxGeometry x="1700" y="1140" width="40" height="20" as="geometry" />
        </mxCell>
        <mxCell id="Q01VI0QdXi_x2SWAzA1D-1" value="RETURN" style="ellipse;whiteSpace=wrap;html=1;" parent="1" vertex="1">
          <mxGeometry x="1650" y="1200" width="90" height="60" as="geometry" />
        </mxCell>
        <mxCell id="aMzmvUaGHVlUUyD1u6ji-4" value="" style="edgeStyle=orthogonalEdgeStyle;rounded=0;orthogonalLoop=1;jettySize=auto;html=1;endArrow=classic;endFill=1;" parent="1" source="aMzmvUaGHVlUUyD1u6ji-1" target="aMzmvUaGHVlUUyD1u6ji-2" edge="1">
          <mxGeometry relative="1" as="geometry" />
        </mxCell>
        <mxCell id="aMzmvUaGHVlUUyD1u6ji-1" value="default.print_title(title)" style="shape=process;whiteSpace=wrap;html=1;backgroundOutline=1;" parent="1" vertex="1">
          <mxGeometry x="940" y="560" width="240" height="50" as="geometry" />
        </mxCell>
        <mxCell id="aMzmvUaGHVlUUyD1u6ji-5" value="" style="edgeStyle=orthogonalEdgeStyle;rounded=0;orthogonalLoop=1;jettySize=auto;html=1;endArrow=classic;endFill=1;" parent="1" source="aMzmvUaGHVlUUyD1u6ji-2" target="PGLwwLvlYjxcBt-9KEW7-10" edge="1">
          <mxGeometry relative="1" as="geometry" />
        </mxCell>
        <mxCell id="aMzmvUaGHVlUUyD1u6ji-2" value="default.general_menu(menu)" style="shape=process;whiteSpace=wrap;html=1;backgroundOutline=1;" parent="1" vertex="1">
          <mxGeometry x="939" y="640" width="240" height="60" as="geometry" />
        </mxCell>
        <mxCell id="aMzmvUaGHVlUUyD1u6ji-12" value="" style="edgeStyle=orthogonalEdgeStyle;rounded=0;orthogonalLoop=1;jettySize=auto;html=1;endArrow=classic;endFill=1;" parent="1" source="aMzmvUaGHVlUUyD1u6ji-7" target="aMzmvUaGHVlUUyD1u6ji-8" edge="1">
          <mxGeometry relative="1" as="geometry" />
        </mxCell>
        <mxCell id="aMzmvUaGHVlUUyD1u6ji-7" value="default.print_title(&quot;Please remember the Car ID to book a car. &quot;)" style="shape=process;whiteSpace=wrap;html=1;backgroundOutline=1;" parent="1" vertex="1">
          <mxGeometry x="546.75" y="1200" width="256.5" height="60" as="geometry" />
        </mxCell>
        <mxCell id="aMzmvUaGHVlUUyD1u6ji-13" value="" style="edgeStyle=orthogonalEdgeStyle;rounded=0;orthogonalLoop=1;jettySize=auto;html=1;endArrow=classic;endFill=1;" parent="1" source="aMzmvUaGHVlUUyD1u6ji-8" target="aMzmvUaGHVlUUyD1u6ji-9" edge="1">
          <mxGeometry relative="1" as="geometry" />
        </mxCell>
        <mxCell id="aMzmvUaGHVlUUyD1u6ji-8" value="PRINT(&quot;&quot;)" style="rounded=1;whiteSpace=wrap;html=1;" parent="1" vertex="1">
          <mxGeometry x="560" y="1320" width="230" height="40" as="geometry" />
        </mxCell>
        <mxCell id="aMzmvUaGHVlUUyD1u6ji-11" value="" style="edgeStyle=orthogonalEdgeStyle;rounded=0;orthogonalLoop=1;jettySize=auto;html=1;endArrow=classic;endFill=1;" parent="1" source="aMzmvUaGHVlUUyD1u6ji-9" target="aMzmvUaGHVlUUyD1u6ji-10" edge="1">
          <mxGeometry relative="1" as="geometry" />
        </mxCell>
        <mxCell id="aMzmvUaGHVlUUyD1u6ji-9" value="default.print_table(data_carlist, 4, space_cars, login_index)" style="shape=process;whiteSpace=wrap;html=1;backgroundOutline=1;" parent="1" vertex="1">
          <mxGeometry x="546.75" y="1400" width="256.5" height="60" as="geometry" />
        </mxCell>
        <mxCell id="aMzmvUaGHVlUUyD1u6ji-25" style="edgeStyle=orthogonalEdgeStyle;rounded=0;orthogonalLoop=1;jettySize=auto;html=1;endArrow=classic;endFill=1;exitX=0.5;exitY=1;exitDx=0;exitDy=0;" parent="1" source="aMzmvUaGHVlUUyD1u6ji-10" edge="1">
          <mxGeometry relative="1" as="geometry">
            <mxPoint x="1060" y="310" as="targetPoint" />
            <Array as="points">
              <mxPoint x="675" y="1650" />
              <mxPoint x="470" y="1650" />
              <mxPoint x="470" y="310" />
            </Array>
          </mxGeometry>
        </mxCell>
        <mxCell id="aMzmvUaGHVlUUyD1u6ji-10" value="view_allcars(user_data, data_carlist, space_cars)" style="shape=process;whiteSpace=wrap;html=1;backgroundOutline=1;" parent="1" vertex="1">
          <mxGeometry x="546.75" y="1520" width="256.5" height="60" as="geometry" />
        </mxCell>
        <mxCell id="aMzmvUaGHVlUUyD1u6ji-20" value="" style="edgeStyle=orthogonalEdgeStyle;rounded=0;orthogonalLoop=1;jettySize=auto;html=1;endArrow=classic;endFill=1;" parent="1" source="aMzmvUaGHVlUUyD1u6ji-15" target="aMzmvUaGHVlUUyD1u6ji-16" edge="1">
          <mxGeometry relative="1" as="geometry" />
        </mxCell>
        <mxCell id="aMzmvUaGHVlUUyD1u6ji-15" value="default.print_title(&quot;Please remember the Car ID to book a car. &quot;)" style="shape=process;whiteSpace=wrap;html=1;backgroundOutline=1;" parent="1" vertex="1">
          <mxGeometry x="866.75" y="1200" width="256.5" height="60" as="geometry" />
        </mxCell>
        <mxCell id="aMzmvUaGHVlUUyD1u6ji-21" value="" style="edgeStyle=orthogonalEdgeStyle;rounded=0;orthogonalLoop=1;jettySize=auto;html=1;endArrow=classic;endFill=1;" parent="1" source="aMzmvUaGHVlUUyD1u6ji-16" target="aMzmvUaGHVlUUyD1u6ji-18" edge="1">
          <mxGeometry relative="1" as="geometry" />
        </mxCell>
        <mxCell id="aMzmvUaGHVlUUyD1u6ji-16" value="PRINT(&quot;&quot;)" style="rounded=1;whiteSpace=wrap;html=1;" parent="1" vertex="1">
          <mxGeometry x="880" y="1320" width="230" height="40" as="geometry" />
        </mxCell>
        <mxCell id="aMzmvUaGHVlUUyD1u6ji-27" style="edgeStyle=orthogonalEdgeStyle;rounded=0;orthogonalLoop=1;jettySize=auto;html=1;endArrow=classic;endFill=1;" parent="1" edge="1">
          <mxGeometry relative="1" as="geometry">
            <mxPoint x="670" y="1648" as="targetPoint" />
            <mxPoint x="993" y="1458" as="sourcePoint" />
            <Array as="points">
              <mxPoint x="993" y="1648" />
            </Array>
          </mxGeometry>
        </mxCell>
        <mxCell id="aMzmvUaGHVlUUyD1u6ji-18" value="searchcar_menu(user_data, data_carlist, space_cars)" style="shape=process;whiteSpace=wrap;html=1;backgroundOutline=1;" parent="1" vertex="1">
          <mxGeometry x="866.75" y="1400" width="256.5" height="60" as="geometry" />
        </mxCell>
        <mxCell id="aMzmvUaGHVlUUyD1u6ji-28" style="edgeStyle=orthogonalEdgeStyle;rounded=0;orthogonalLoop=1;jettySize=auto;html=1;endArrow=classic;endFill=1;" parent="1" edge="1">
          <mxGeometry relative="1" as="geometry">
            <mxPoint x="990" y="1647" as="targetPoint" />
            <mxPoint x="1355.0833333333335" y="1257" as="sourcePoint" />
            <Array as="points">
              <mxPoint x="1355" y="1647" />
            </Array>
          </mxGeometry>
        </mxCell>
        <mxCell id="aMzmvUaGHVlUUyD1u6ji-22" value="bookcar_interface(user_data, data_clients, data_carlist, data_transactions)" style="shape=process;whiteSpace=wrap;html=1;backgroundOutline=1;" parent="1" vertex="1">
          <mxGeometry x="1226.75" y="1200" width="256.5" height="60" as="geometry" />
        </mxCell>
        <mxCell id="nWboeevV7wu9sxfELIhW-2" value="" style="edgeStyle=orthogonalEdgeStyle;rounded=0;orthogonalLoop=1;jettySize=auto;html=1;endArrow=classic;endFill=1;" parent="1" source="nWboeevV7wu9sxfELIhW-1" target="PGLwwLvlYjxcBt-9KEW7-2" edge="1">
          <mxGeometry relative="1" as="geometry" />
        </mxCell>
        <mxCell id="nWboeevV7wu9sxfELIhW-1" value="FUNCTION rentcar_interface(user_data, data_clients, data_carlist, data_transactions, login_index, space_cars)" style="shape=process;whiteSpace=wrap;html=1;backgroundOutline=1;" parent="1" vertex="1">
          <mxGeometry x="920" y="200" width="280" height="70" as="geometry" />
        </mxCell>
        <mxCell id="q8p7JVlAxIzu5GNyNLyk-3" value="" style="edgeStyle=orthogonalEdgeStyle;rounded=0;orthogonalLoop=1;jettySize=auto;html=1;" edge="1" parent="1" source="q8p7JVlAxIzu5GNyNLyk-1" target="PGLwwLvlYjxcBt-9KEW7-17">
          <mxGeometry relative="1" as="geometry" />
        </mxCell>
        <mxCell id="q8p7JVlAxIzu5GNyNLyk-1" value="BREAK" style="rounded=1;whiteSpace=wrap;html=1;" vertex="1" parent="1">
          <mxGeometry x="603" y="940" width="145" height="40" as="geometry" />
        </mxCell>
      </root>
    </mxGraphModel>
  </diagram>
</mxfile>
